<svg width="25" height="24" viewBox="0 0 25 24" fill="none" xmlns="http://www.w3.org/2000/svg">
<path d="M21.99 7.80863V7.81V16.19C21.99 17.9106 21.4791 19.2238 20.5964 20.1064C19.7138 20.9891 18.4006 21.5 16.68 21.5H8.31C6.58945 21.5 5.27634 20.9891 4.39377 20.1054C3.51114 19.2217 3 17.9059 3 16.18V7.81C3 6.08944 3.51093 4.77618 4.39355 3.89355C5.27618 3.01093 6.58944 2.5 8.31 2.5H16.69C18.4107 2.5 19.7237 3.01097 20.605 3.89333C21.4861 4.77559 21.9947 6.08838 21.99 7.80863ZM13.75 18V13.25H18.5C19.1861 13.25 19.75 12.6861 19.75 12C19.75 11.3139 19.1861 10.75 18.5 10.75H13.75V6C13.75 5.31386 13.1861 4.75 12.5 4.75C11.8139 4.75 11.25 5.31386 11.25 6V10.75H6.5C5.81386 10.75 5.25 11.3139 5.25 12C5.25 12.6861 5.81386 13.25 6.5 13.25H11.25V18C11.25 18.6861 11.8139 19.25 12.5 19.25C13.1861 19.25 13.75 18.6861 13.75 18Z" fill="#6941C6" stroke="#6941C6"/>
</svg>
