<svg width="30" height="30" viewBox="0 0 30 30" fill="none" xmlns="http://www.w3.org/2000/svg">
<path d="M27.5 23.75V27.5H2.5V23.75C2.5 23.0625 3.0625 22.5 3.75 22.5H26.25C26.9375 22.5 27.5 23.0625 27.5 23.75Z" fill="#475467" stroke="#475467" stroke-width="1.5" stroke-miterlimit="10" stroke-linecap="round" stroke-linejoin="round"/>
<path d="M8.75 13.75H6.25V22.5H8.75V13.75Z" fill="#475467"/>
<path d="M13.75 13.75H11.25V22.5H13.75V13.75Z" fill="#475467"/>
<path d="M18.75 13.75H16.25V22.5H18.75V13.75Z" fill="#475467"/>
<path d="M23.75 13.75H21.25V22.5H23.75V13.75Z" fill="#475467"/>
<path d="M28.75 28.4375H1.25C0.7375 28.4375 0.3125 28.0125 0.3125 27.5C0.3125 26.9875 0.7375 26.5625 1.25 26.5625H28.75C29.2625 26.5625 29.6875 26.9875 29.6875 27.5C29.6875 28.0125 29.2625 28.4375 28.75 28.4375Z" fill="#475467"/>
<path d="M26.7125 7.1873L15.4625 2.6873C15.2125 2.5873 14.7875 2.5873 14.5375 2.6873L3.2875 7.1873C2.85 7.3623 2.5 7.8748 2.5 8.3498V12.4998C2.5 13.1873 3.0625 13.7498 3.75 13.7498H26.25C26.9375 13.7498 27.5 13.1873 27.5 12.4998V8.3498C27.5 7.8748 27.15 7.3623 26.7125 7.1873ZM15 10.6248C13.9625 10.6248 13.125 9.7873 13.125 8.7498C13.125 7.7123 13.9625 6.8748 15 6.8748C16.0375 6.8748 16.875 7.7123 16.875 8.7498C16.875 9.7873 16.0375 10.6248 15 10.6248Z" fill="#475467"/>
</svg>
