<svg width="25" height="24" viewBox="0 0 25 24" fill="none" xmlns="http://www.w3.org/2000/svg">
<path d="M11.2502 4.63986L6.82022 2.44986C4.43022 1.27986 2.47021 2.46986 2.47021 5.08986V19.9299C2.47021 21.0699 3.42021 21.9999 4.58021 21.9999H12.0002C12.5502 21.9999 13.0002 21.5499 13.0002 20.9999V7.40986C13.0002 6.35986 12.2102 5.10986 11.2502 4.63986ZM9.47021 13.7499H6.00021C5.59021 13.7499 5.25021 13.4099 5.25021 12.9999C5.25021 12.5899 5.59021 12.2499 6.00021 12.2499H9.47021C9.88021 12.2499 10.2202 12.5899 10.2202 12.9999C10.2202 13.4099 9.89021 13.7499 9.47021 13.7499ZM9.47021 9.74986H6.00021C5.59021 9.74986 5.25021 9.40986 5.25021 8.99986C5.25021 8.58986 5.59021 8.24986 6.00021 8.24986H9.47021C9.88021 8.24986 10.2202 8.58986 10.2202 8.99986C10.2202 9.40986 9.89021 9.74986 9.47021 9.74986Z" fill="#292D32"/>
<path d="M22.5 18.04V19.5C22.5 20.88 21.38 22 20 22H15.47C14.93 22 14.5 21.57 14.5 21.03V18.87C15.57 19 16.7 18.69 17.51 18.04C18.19 18.59 19.06 18.92 20.01 18.92C20.94 18.92 21.81 18.59 22.5 18.04Z" fill="#292D32"/>
<path d="M22.5 15.05V15.06C22.42 16.37 21.35 17.42 20.01 17.42C18.62 17.42 17.51 16.29 17.51 14.92C17.51 16.45 16.1 17.68 14.5 17.37V12C14.5 11.36 15.09 10.88 15.72 11.02L17.51 11.42L17.99 11.53L20.03 11.99C20.52 12.09 20.97 12.26 21.36 12.51C21.36 12.52 21.37 12.52 21.37 12.52C21.47 12.59 21.57 12.67 21.66 12.76C22.12 13.22 22.42 13.89 22.49 14.87C22.49 14.93 22.5 14.99 22.5 15.05Z" fill="#292D32"/>
</svg>
