<svg width="12" height="12" viewBox="0 0 12 12" fill="none" xmlns="http://www.w3.org/2000/svg">
<path d="M4.125 2.875C3.92 2.875 3.75 2.705 3.75 2.5V1C3.75 0.795 3.92 0.625 4.125 0.625C4.33 0.625 4.5 0.795 4.5 1V2.5C4.5 2.705 4.33 2.875 4.125 2.875Z" fill="#6941C6"/>
<path d="M7.875 2.875C7.67 2.875 7.5 2.705 7.5 2.5V1C7.5 0.795 7.67 0.625 7.875 0.625C8.08 0.625 8.25 0.795 8.25 1V2.5C8.25 2.705 8.08 2.875 7.875 2.875Z" fill="#6941C6"/>
<path d="M5.99999 7.045C6.25999 7.045 6.44999 6.89 6.44999 6.645C6.44999 6.395 6.25999 6.25 5.99999 6.25C5.73999 6.25 5.54999 6.395 5.54999 6.645C5.54999 6.89 5.73999 7.045 5.99999 7.045Z" fill="#6941C6"/>
<path d="M5.99999 8.49982C6.3148 8.49982 6.56999 8.29164 6.56999 8.03482C6.56999 7.77801 6.3148 7.56982 5.99999 7.56982C5.68519 7.56982 5.42999 7.77801 5.42999 8.03482C5.42999 8.29164 5.68519 8.49982 5.99999 8.49982Z" fill="#6941C6"/>
<path d="M9.785 2.25C9.455 2.005 8.98 2.24 8.98 2.655V2.705C8.98 3.29 8.56 3.83 7.975 3.89C7.3 3.96 6.73 3.43 6.73 2.77V2.25C6.73 1.975 6.505 1.75 6.23 1.75H5.77C5.495 1.75 5.27 1.975 5.27 2.25V2.77C5.27 3.165 5.065 3.515 4.755 3.71C4.71 3.74 4.66 3.765 4.61 3.79C4.565 3.815 4.515 3.835 4.46 3.85C4.4 3.87 4.335 3.885 4.265 3.89C4.185 3.9 4.105 3.9 4.025 3.89C3.955 3.885 3.89 3.87 3.83 3.85C3.78 3.835 3.73 3.815 3.68 3.79C3.63 3.765 3.58 3.74 3.535 3.71C3.22 3.49 3.02 3.11 3.02 2.705V2.655C3.02 2.27 2.61 2.04 2.285 2.205C2.28 2.21 2.275 2.21 2.27 2.215C2.25 2.225 2.235 2.235 2.215 2.25C2.2 2.265 2.18 2.275 2.165 2.29C2.025 2.4 1.9 2.525 1.795 2.66C1.74 2.72 1.695 2.785 1.655 2.85C1.65 2.855 1.645 2.86 1.64 2.87C1.595 2.935 1.555 3.01 1.52 3.08C1.51 3.09 1.505 3.095 1.505 3.105C1.475 3.165 1.445 3.225 1.425 3.29C1.41 3.315 1.405 3.335 1.395 3.36C1.365 3.435 1.345 3.51 1.325 3.585C1.305 3.655 1.29 3.73 1.28 3.805C1.27 3.86 1.265 3.915 1.26 3.975C1.255 4.045 1.25 4.115 1.25 4.185V8.565C1.25 9.91 2.34 11 3.685 11H8.315C9.66 11 10.75 9.91 10.75 8.565V4.185C10.75 3.39 10.37 2.695 9.785 2.25ZM6 9.125C5.225 9.125 4.75 8.74 4.75 8.12C4.75 7.78 4.925 7.485 5.23 7.31C5.01 7.155 4.865 6.925 4.865 6.61C4.865 5.96 5.385 5.625 6 5.625C6.615 5.625 7.13 5.96 7.13 6.61C7.13 6.925 6.99 7.155 6.765 7.31C7.075 7.485 7.25 7.78 7.25 8.12C7.25 8.74 6.77 9.125 6 9.125Z" fill="#6941C6"/>
</svg>
