<svg width="32" height="32" viewBox="0 0 32 32" fill="none" xmlns="http://www.w3.org/2000/svg">
<rect width="32" height="32" rx="16" fill="#F9F5FF"/>
<path d="M22 22.667H10C9.72667 22.667 9.5 22.4403 9.5 22.167C9.5 21.8937 9.72667 21.667 10 21.667H22C22.2733 21.667 22.5 21.8937 22.5 22.167C22.5 22.4403 22.2733 22.667 22 22.667Z" fill="#6941C6"/>
<path d="M20.6799 10.3204C19.3866 9.0271 18.1199 8.99376 16.7932 10.3204L15.9866 11.1271C15.9199 11.1938 15.8932 11.3004 15.9199 11.3938C16.4266 13.1604 17.8399 14.5738 19.6066 15.0804C19.6332 15.0871 19.6599 15.0938 19.6866 15.0938C19.7599 15.0938 19.8266 15.0671 19.8799 15.0138L20.6799 14.2071C21.3399 13.5538 21.6599 12.9204 21.6599 12.2804C21.6666 11.6204 21.3466 10.9804 20.6799 10.3204Z" fill="#6941C6"/>
<path d="M18.4066 15.6865C18.2132 15.5932 18.0266 15.4999 17.8466 15.3932C17.6999 15.3065 17.5599 15.2132 17.4199 15.1132C17.3066 15.0399 17.1732 14.9332 17.0466 14.8265C17.0332 14.8199 16.9866 14.7799 16.9332 14.7265C16.7132 14.5399 16.4666 14.2999 16.2466 14.0332C16.2266 14.0199 16.1932 13.9732 16.1466 13.9132C16.0799 13.8332 15.9666 13.6999 15.8666 13.5465C15.7866 13.4465 15.6932 13.2999 15.6066 13.1532C15.4999 12.9732 15.4066 12.7932 15.3132 12.6065C15.1908 12.3443 14.8467 12.2664 14.6421 12.471L10.8932 16.2199C10.8066 16.3065 10.7266 16.4732 10.7066 16.5865L10.3466 19.1399C10.2799 19.5932 10.4066 20.0199 10.6866 20.3065C10.9266 20.5399 11.2599 20.6665 11.6199 20.6665C11.6999 20.6665 11.7799 20.6599 11.8599 20.6465L14.4199 20.2865C14.5399 20.2665 14.7066 20.1865 14.7866 20.0999L18.5416 16.3448C18.7421 16.1443 18.6668 15.7993 18.4066 15.6865Z" fill="#6941C6"/>
</svg>
