<?xml version="1.0" encoding="UTF-8"?>
<svg viewBox="0 0 240 240" xmlns="http://www.w3.org/2000/svg">
  <!-- Background gradient -->
  <defs>
    <linearGradient id="bgGradient" x1="0%" y1="0%" x2="100%" y2="100%">
      <stop offset="0%" stop-color="#a68bdb" stop-opacity="0.2"/>
      <stop offset="100%" stop-color="#8860db" stop-opacity="0.2"/>
    </linearGradient>
    <linearGradient id="calGradient" x1="0%" y1="0%" x2="100%" y2="100%">
      <stop offset="0%" stop-color="#a68bdb"/>
      <stop offset="100%" stop-color="#8860db"/>
    </linearGradient>
  </defs>
  
  <!-- Decorative background -->
  <circle cx="120" cy="120" r="100" fill="url(#bgGradient)"/>
  
  <!-- Calendar base -->
  <rect x="70" y="60" width="100" height="120" rx="12" ry="12" fill="white" stroke="#e6e0f4" stroke-width="3"/>
  
  <!-- Calendar header -->
  <rect x="70" y="60" width="100" height="24" rx="12" ry="12" fill="url(#calGradient)"/>
  
  <!-- Calendar hangers -->
  <circle cx="90" cy="60" r="4" fill="#8860db"/>
  <circle cx="150" cy="60" r="4" fill="#8860db"/>
  
  <!-- Empty state elements -->
  <line x1="85" y1="100" x2="155" y2="100" stroke="#e6e0f4" stroke-width="3" stroke-linecap="round"/>
  <line x1="85" y1="120" x2="155" y2="120" stroke="#e6e0f4" stroke-width="3" stroke-linecap="round"/>
  <line x1="85" y1="140" x2="155" y2="140" stroke="#e6e0f4" stroke-width="3" stroke-linecap="round"/>
  
  <!-- No events indicator -->
  <circle cx="120" cy="160" r="20" fill="#f5f0ff" stroke="#8860db" stroke-width="2"/>
  <path d="M110,160 L118,168 L130,156" fill="none" stroke="#8860db" stroke-width="3" stroke-linecap="round" stroke-linejoin="round"/>
  
  <!-- Stars decoration -->
  <circle cx="70" cy="180" r="4" fill="#a68bdb" opacity="0.7"/>
  <circle cx="60" cy="140" r="3" fill="#a68bdb" opacity="0.5"/>
  <circle cx="180" cy="80" r="4" fill="#a68bdb" opacity="0.7"/>
  <circle cx="170" cy="180" r="3" fill="#a68bdb" opacity="0.5"/>
</svg>