<svg width="70" height="52" viewBox="0 0 70 52" fill="none" xmlns="http://www.w3.org/2000/svg">
<path d="M6.05172 8.74549L17.2131 6.88525V40.7377L12.3018 41.7717C9.01306 42.464 5.79705 40.3203 5.17081 37.0184L1.14319 15.7819C0.515988 12.4748 2.73148 9.29886 6.05172 8.74549Z" fill="white" stroke="#6941C6" stroke-width="2"/>
<path d="M63.9483 8.74549L52.7869 6.88525V40.7377L57.6982 41.7717C60.9869 42.464 64.203 40.3203 64.8292 37.0184L68.8568 15.7819C69.484 12.4748 67.2685 9.29886 63.9483 8.74549Z" fill="white" stroke="#6941C6" stroke-width="2"/>
<g filter="url(#filter0_dd_981_4056)">
<rect x="16.0656" width="37.8689" height="44.7541" rx="6" fill="white"/>
<rect x="17.0656" y="1" width="35.8689" height="42.7541" rx="5" stroke="#6941C6" stroke-width="2"/>
</g>
<path d="M38.9825 33.0894C39.7331 33.9529 41.0385 34.0028 41.8536 33.2427L42.0099 33.0796L47.2452 26.9761L52.9347 33.0981V38.7544C52.9345 41.5156 50.6959 43.7542 47.9347 43.7544H22.0656C19.3042 43.7544 17.0657 41.5157 17.0656 38.7544V35.2935L29.4728 22.145L38.9825 33.0894Z" fill="#F9F5FF" stroke="#6941C6" stroke-width="2"/>
<circle cx="39.5902" cy="14.3441" r="4.16393" fill="#F9F5FF" stroke="#6941C6" stroke-width="2"/>
<defs>
<filter id="filter0_dd_981_4056" x="13.0656" y="0" width="43.8689" height="51.7539" filterUnits="userSpaceOnUse" color-interpolation-filters="sRGB">
<feFlood flood-opacity="0" result="BackgroundImageFix"/>
<feColorMatrix in="SourceAlpha" type="matrix" values="0 0 0 0 0 0 0 0 0 0 0 0 0 0 0 0 0 0 127 0" result="hardAlpha"/>
<feOffset dy="2"/>
<feGaussianBlur stdDeviation="1"/>
<feComposite in2="hardAlpha" operator="out"/>
<feColorMatrix type="matrix" values="0 0 0 0 0 0 0 0 0 0 0 0 0 0 0 0 0 0 0.06 0"/>
<feBlend mode="normal" in2="BackgroundImageFix" result="effect1_dropShadow_981_4056"/>
<feColorMatrix in="SourceAlpha" type="matrix" values="0 0 0 0 0 0 0 0 0 0 0 0 0 0 0 0 0 0 127 0" result="hardAlpha"/>
<feOffset dy="4"/>
<feGaussianBlur stdDeviation="1.5"/>
<feComposite in2="hardAlpha" operator="out"/>
<feColorMatrix type="matrix" values="0 0 0 0 0 0 0 0 0 0 0 0 0 0 0 0 0 0 0.07 0"/>
<feBlend mode="normal" in2="effect1_dropShadow_981_4056" result="effect2_dropShadow_981_4056"/>
<feBlend mode="normal" in="SourceGraphic" in2="effect2_dropShadow_981_4056" result="shape"/>
</filter>
</defs>
</svg>
