<svg width="25" height="24" viewBox="0 0 25 24" fill="none" xmlns="http://www.w3.org/2000/svg">
<path d="M15.7602 21.9999C15.7002 21.9999 15.6302 21.9899 15.5702 21.9699C13.5602 21.3999 11.4502 21.3999 9.44015 21.9699C9.07015 22.0699 8.68015 21.8599 8.58015 21.4899C8.47015 21.1199 8.69015 20.7299 9.06015 20.6299C11.3202 19.9899 13.7002 19.9899 15.9602 20.6299C16.3302 20.7399 16.5502 21.1199 16.4402 21.4899C16.3402 21.7999 16.0602 21.9999 15.7602 21.9999Z" fill="#292D32"/>
<path d="M19.7102 6.36001C18.6702 4.26001 16.6602 2.71001 14.3302 2.20001C11.8902 1.66001 9.39021 2.24001 7.48021 3.78001C5.56021 5.31001 4.47021 7.60001 4.47021 10.05C4.47021 12.64 6.02022 15.35 8.36021 16.92V17.75C8.35021 18.03 8.34021 18.46 8.68021 18.81C9.03021 19.17 9.55021 19.21 9.96021 19.21H15.0902C15.6302 19.21 16.0402 19.06 16.3202 18.78C16.7002 18.39 16.6902 17.89 16.6802 17.62V16.92C19.7802 14.83 21.7302 10.42 19.7102 6.36001ZM14.2202 11.62L13.1502 13.48C13.0102 13.72 12.7602 13.86 12.5002 13.86C12.3702 13.86 12.2402 13.83 12.1302 13.76C11.7702 13.55 11.6502 13.09 11.8502 12.74L12.7002 11.26H11.8602C11.3602 11.26 10.9502 11.04 10.7302 10.67C10.5102 10.29 10.5302 9.83001 10.7802 9.39001L11.8502 7.53001C12.0602 7.17001 12.5202 7.05001 12.8702 7.25001C13.2302 7.46001 13.3502 7.92001 13.1502 8.27001L12.3002 9.75001H13.1402C13.6402 9.75001 14.0502 9.97001 14.2702 10.34C14.4902 10.72 14.4702 11.19 14.2202 11.62Z" fill="#292D32"/>
</svg>
