<svg width="25" height="24" viewBox="0 0 25 24" fill="none" xmlns="http://www.w3.org/2000/svg">
<path d="M17.2699 2.5H19.1699C20.1761 2.5 20.8623 2.76443 21.2989 3.20105C21.7355 3.63768 21.9999 4.32387 21.9999 5.33V7.23C21.9999 8.23613 21.7355 8.92232 21.2989 9.35895C20.8623 9.79557 20.1761 10.06 19.1699 10.06H17.2699C16.2638 10.06 15.5776 9.79557 15.141 9.35895C14.7044 8.92232 14.4399 8.23613 14.4399 7.23V5.33C14.4399 4.32387 14.7044 3.63768 15.141 3.20105C15.5776 2.76443 16.2638 2.5 17.2699 2.5Z" fill="#6941C6" stroke="#6941C6"/>
<path d="M10.56 16.7674V16.7697V18.6697C10.56 19.6758 10.2956 20.362 9.85895 20.7986C9.42232 21.2353 8.73613 21.4997 7.73 21.4997H5.83C4.82387 21.4997 4.13797 21.2353 3.70145 20.7978C3.26474 20.3601 3 19.6714 3 18.6597V16.7597C3 15.7536 3.26441 15.0677 3.70191 14.6311C4.13959 14.1944 4.82828 13.9297 5.84 13.9297H7.74C8.74631 13.9297 9.43184 14.1942 9.86691 14.6312C10.302 15.0682 10.5646 15.7561 10.56 16.7674Z" fill="#6941C6" stroke="#6941C6"/>
<path d="M6.79 10.58C9.1593 10.58 11.08 8.6593 11.08 6.29C11.08 3.9207 9.1593 2 6.79 2C4.4207 2 2.5 3.9207 2.5 6.29C2.5 8.6593 4.4207 10.58 6.79 10.58Z" fill="#6941C6"/>
<path d="M18.2099 21.9999C20.5792 21.9999 22.4999 20.0792 22.4999 17.7099C22.4999 15.3406 20.5792 13.4199 18.2099 13.4199C15.8406 13.4199 13.9199 15.3406 13.9199 17.7099C13.9199 20.0792 15.8406 21.9999 18.2099 21.9999Z" fill="#6941C6"/>
</svg>
