<svg width="40" height="41" viewBox="0 0 40 41" fill="none" xmlns="http://www.w3.org/2000/svg">
<path d="M14.8 8.1667C13.4666 2.40003 4.78329 2.38337 3.44996 8.1667C2.66663 11.55 4.81663 14.4167 6.68329 16.2C8.04996 17.4834 10.2 17.4834 11.5666 16.2C13.4333 14.4167 15.5666 11.55 14.8 8.1667ZM9.18329 10.8334C8.26663 10.8334 7.51663 10.0834 7.51663 9.1667C7.51663 8.25003 8.24996 7.50003 9.16663 7.50003H9.18329C10.1166 7.50003 10.85 8.25003 10.85 9.1667C10.85 10.0834 10.1166 10.8334 9.18329 10.8334Z" fill="#175CD3"/>
<path d="M36.5167 28.1667C35.1833 22.4 26.4667 22.3834 25.1167 28.1667C24.3333 31.55 26.4833 34.4167 28.3667 36.2C29.7333 37.4834 31.9 37.4834 33.2667 36.2C35.15 34.4167 37.3 31.55 36.5167 28.1667ZM30.8833 30.8334C29.9667 30.8334 29.2167 30.0834 29.2167 29.1667C29.2167 28.25 29.95 27.5 30.8667 27.5H30.8833C31.8 27.5 32.55 28.25 32.55 29.1667C32.55 30.0834 31.8 30.8334 30.8833 30.8334Z" fill="#175CD3"/>
<path d="M19.9999 33.4168H15.5333C13.5999 33.4168 11.9166 32.2502 11.2499 30.4502C10.5666 28.6502 11.0666 26.6668 12.5166 25.3835L25.8333 13.7335C26.6333 13.0335 26.6499 12.0835 26.4166 11.4335C26.1666 10.7835 25.5333 10.0835 24.4666 10.0835H19.9999C19.3166 10.0835 18.7499 9.51683 18.7499 8.8335C18.7499 8.15016 19.3166 7.5835 19.9999 7.5835H24.4666C26.3999 7.5835 28.0833 8.75016 28.7499 10.5502C29.4333 12.3502 28.9333 14.3335 27.4833 15.6168L14.1666 27.2668C13.3666 27.9668 13.3499 28.9168 13.5833 29.5668C13.8333 30.2168 14.4666 30.9168 15.5333 30.9168H19.9999C20.6833 30.9168 21.2499 31.4835 21.2499 32.1668C21.2499 32.8502 20.6833 33.4168 19.9999 33.4168Z" fill="#175CD3"/>
</svg>
