<svg width="30" height="30" viewBox="0 0 30 30" fill="none" xmlns="http://www.w3.org/2000/svg">
<path opacity="0.4" d="M7.1747 20C7.3122 19.3875 7.0622 18.5125 6.6247 18.075L3.5872 15.0375C2.6372 14.0875 2.2622 13.075 2.5372 12.2C2.8247 11.325 3.7122 10.725 5.0372 10.5L8.9372 9.85C9.4997 9.75 10.1872 9.25 10.4497 8.7375L12.5997 4.425C13.2247 3.1875 14.0747 2.5 14.9997 2.5C15.9247 2.5 16.7747 3.1875 17.3997 4.425L19.5497 8.7375C19.7122 9.0625 20.0497 9.375 20.4122 9.5875L6.9497 23.05C6.7747 23.225 6.4747 23.0625 6.5247 22.8125L7.1747 20Z" fill="#334155"/>
<path d="M23.375 18.0749C22.925 18.5249 22.675 19.3874 22.825 19.9999L23.6875 23.7624C24.05 25.3249 23.825 26.4999 23.05 27.0624C22.7375 27.2874 22.3625 27.3999 21.925 27.3999C21.2875 27.3999 20.5375 27.1624 19.7125 26.6749L16.05 24.4999C15.475 24.1624 14.525 24.1624 13.95 24.4999L10.2875 26.6749C8.9 27.4874 7.7125 27.6249 6.95 27.0624C6.6625 26.8499 6.45 26.5624 6.3125 26.1874L21.5125 10.9874C22.0875 10.4124 22.9 10.1499 23.6875 10.2874L24.95 10.4999C26.275 10.7249 27.1625 11.3249 27.45 12.1999C27.725 13.0749 27.35 14.0874 26.4 15.0374L23.375 18.0749Z" fill="#334155"/>
</svg>
