<svg width="16" height="17" viewBox="0 0 16 17" fill="none" xmlns="http://www.w3.org/2000/svg">
<path d="M14.6666 7.6665C14.94 7.6665 15.1666 7.43984 15.1666 7.1665V6.49984C15.1666 3.55984 14.2733 2.6665 11.3333 2.6665H7.16665V4.1665C7.16665 4.43984 6.93998 4.6665 6.66665 4.6665C6.39331 4.6665 6.16665 4.43984 6.16665 4.1665V2.6665H4.66665C1.72665 2.6665 0.833313 3.55984 0.833313 6.49984V6.83317C0.833313 7.1065 1.05998 7.33317 1.33331 7.33317C1.97331 7.33317 2.49998 7.85984 2.49998 8.49984C2.49998 9.13984 1.97331 9.6665 1.33331 9.6665C1.05998 9.6665 0.833313 9.89317 0.833313 10.1665V10.4998C0.833313 13.4398 1.72665 14.3332 4.66665 14.3332H6.16665V12.8332C6.16665 12.5598 6.39331 12.3332 6.66665 12.3332C6.93998 12.3332 7.16665 12.5598 7.16665 12.8332V14.3332H11.3333C14.2733 14.3332 15.1666 13.4398 15.1666 10.4998C15.1666 10.2265 14.94 9.99984 14.6666 9.99984C14.0266 9.99984 13.5 9.47317 13.5 8.83317C13.5 8.19317 14.0266 7.6665 14.6666 7.6665ZM7.16665 9.9465C7.16665 10.2198 6.93998 10.4465 6.66665 10.4465C6.39331 10.4465 6.16665 10.2198 6.16665 9.9465V7.05317C6.16665 6.77984 6.39331 6.55317 6.66665 6.55317C6.93998 6.55317 7.16665 6.77984 7.16665 7.05317V9.9465Z" fill="#6941C6"/>
</svg>
