<svg width="25" height="24" viewBox="0 0 25 24" fill="none" xmlns="http://www.w3.org/2000/svg">
<path d="M17.245 4H7.245C3.415 4 2.345 4.92 2.255 8.5C4.185 8.5 5.745 10.07 5.745 12C5.745 13.93 4.185 15.49 2.255 15.5C2.345 19.08 3.415 20 7.245 20H17.245C21.245 20 22.245 19 22.245 15V9C22.245 5 21.245 4 17.245 4Z" stroke="#667085" stroke-width="1.5" stroke-linecap="round" stroke-linejoin="round"/>
<path d="M9.24329 4V7.5" stroke="#667085" stroke-width="1.5" stroke-linecap="round" stroke-linejoin="round"/>
<path d="M9.24329 16.5V20" stroke="#667085" stroke-width="1.5" stroke-linecap="round" stroke-linejoin="round"/>
<path d="M15.275 9.33016L15.895 10.5802C15.955 10.7002 16.075 10.7902 16.205 10.8102L17.585 11.0102C17.925 11.0602 18.065 11.4802 17.815 11.7202L16.815 12.6902C16.715 12.7802 16.675 12.9202 16.695 13.0602L16.935 14.4302C16.995 14.7702 16.635 15.0302 16.335 14.8702L15.105 14.2202C14.985 14.1602 14.835 14.1602 14.715 14.2202L13.485 14.8702C13.175 15.0302 12.825 14.7702 12.885 14.4302L13.125 13.0602C13.145 12.9202 13.105 12.7902 13.005 12.6902L12.015 11.7202C11.765 11.4802 11.905 11.0602 12.245 11.0102L13.625 10.8102C13.765 10.7902 13.875 10.7102 13.935 10.5802L14.545 9.33016C14.685 9.02016 15.125 9.02016 15.275 9.33016Z" stroke="#667085" stroke-width="1.5" stroke-linecap="round" stroke-linejoin="round"/>
</svg>
