<svg width="30" height="30" viewBox="0 0 30 30" fill="none" xmlns="http://www.w3.org/2000/svg">
<path d="M23.75 10C25.8211 10 27.5 8.32107 27.5 6.25C27.5 4.17893 25.8211 2.5 23.75 2.5C21.6789 2.5 20 4.17893 20 6.25C20 8.32107 21.6789 10 23.75 10Z" fill="#334155"/>
<path d="M25.425 15.9002H21.2875C20.125 15.9002 19.0875 16.5502 18.5625 17.5752L17.5625 19.5502C17.325 20.0252 16.85 20.3127 16.325 20.3127H12.4375C12.075 20.3127 11.5375 20.2377 11.2 19.5377L10.2125 17.5752C9.6875 16.5377 8.65 15.8877 7.4875 15.8877H3.325C2.875 15.9002 2.5 16.2752 2.5 16.7252V20.5877C2.5 24.9252 5.0875 27.5002 9.4125 27.5002H19.3625C23.4375 27.5002 25.95 25.2627 26.25 21.3002V16.7252C26.25 16.2752 25.875 15.9002 25.425 15.9002Z" fill="#334155"/>
<path d="M26.25 13V14.1625C25.9875 14.075 25.7125 14.025 25.425 14.025H21.2875C19.4125 14.025 17.725 15.0625 16.9 16.7375L16.025 18.45H12.7375L11.8875 16.75C11.0375 15.0625 9.3625 14.025 7.4875 14.025H3.325C3.0375 14.025 2.7625 14.075 2.5 14.1625V10.65C2.5 6.8375 5.5875 3.75 9.4 3.75H17C17.8 3.75 18.375 4.475 18.225 5.25C18.025 6.25 18.1125 7.3375 18.6 8.4875C19.1625 9.7875 20.2125 10.8375 21.5125 11.4C22.6625 11.8875 23.75 11.975 24.75 11.775C25.525 11.625 26.25 12.2 26.25 13Z" fill="#334155"/>
</svg>
