<svg width="25" height="24" viewBox="0 0 25 24" fill="none" xmlns="http://www.w3.org/2000/svg">
<path d="M3.24982 18.6498C2.83982 18.6498 2.49982 18.3098 2.49982 17.8998V12.1998C2.44982 9.4898 3.45982 6.9298 5.33982 5.0098C7.21982 3.0998 9.73982 2.0498 12.4498 2.0498C17.9898 2.0498 22.4998 6.5598 22.4998 12.0998V17.7998C22.4998 18.2098 22.1598 18.5498 21.7498 18.5498C21.3398 18.5498 20.9998 18.2098 20.9998 17.7998V12.0998C20.9998 7.3898 17.1698 3.5498 12.4498 3.5498C10.1398 3.5498 7.99982 4.43981 6.40982 6.0598C4.80982 7.68981 3.95982 9.85981 3.99982 12.1798V17.8898C3.99982 18.3098 3.66982 18.6498 3.24982 18.6498Z" fill="#292D32"/>
<path d="M6.44 12.4502H6.31C4.21 12.4502 2.5 14.1602 2.5 16.2602V18.1402C2.5 20.2402 4.21 21.9502 6.31 21.9502H6.44C8.54 21.9502 10.25 20.2402 10.25 18.1402V16.2602C10.25 14.1602 8.54 12.4502 6.44 12.4502Z" fill="#292D32"/>
<path d="M18.69 12.4502H18.56C16.46 12.4502 14.75 14.1602 14.75 16.2602V18.1402C14.75 20.2402 16.46 21.9502 18.56 21.9502H18.69C20.79 21.9502 22.5 20.2402 22.5 18.1402V16.2602C22.5 14.1602 20.79 12.4502 18.69 12.4502Z" fill="#292D32"/>
</svg>
