<svg width="16" height="17" viewBox="0 0 16 17" fill="none" xmlns="http://www.w3.org/2000/svg">
<path d="M8.00016 1.5332C4.32683 1.5332 1.3335 4.52654 1.3335 8.19987C1.3335 11.8732 4.32683 14.8665 8.00016 14.8665C11.6735 14.8665 14.6668 11.8732 14.6668 8.19987C14.6668 4.52654 11.6735 1.5332 8.00016 1.5332ZM5.3335 8.86654C4.96016 8.86654 4.66683 8.56654 4.66683 8.19987C4.66683 7.8332 4.96683 7.5332 5.3335 7.5332C5.70016 7.5332 6.00016 7.8332 6.00016 8.19987C6.00016 8.56654 5.70683 8.86654 5.3335 8.86654ZM8.00016 8.86654C7.62683 8.86654 7.3335 8.56654 7.3335 8.19987C7.3335 7.8332 7.6335 7.5332 8.00016 7.5332C8.36683 7.5332 8.66683 7.8332 8.66683 8.19987C8.66683 8.56654 8.3735 8.86654 8.00016 8.86654ZM10.6668 8.86654C10.2935 8.86654 10.0002 8.56654 10.0002 8.19987C10.0002 7.8332 10.3002 7.5332 10.6668 7.5332C11.0335 7.5332 11.3335 7.8332 11.3335 8.19987C11.3335 8.56654 11.0402 8.86654 10.6668 8.86654Z" fill="#667085"/>
</svg>
