<svg width="25" height="24" viewBox="0 0 25 24" fill="none" xmlns="http://www.w3.org/2000/svg">
<path d="M21.48 10.7C21.26 6.8 18.37 3.55 14.51 2.89C14.45 2.12 13.81 1.5 13.02 1.5H12.02C11.23 1.5 10.6 2.11 10.53 2.88C6.65002 3.52 3.74002 6.78 3.52002 10.7C2.81002 10.82 2.27002 11.43 2.27002 12.17V13.17C2.27002 14 2.94002 14.67 3.77002 14.67H4.77002C5.60002 14.67 6.27002 14 6.27002 13.17V12.17C6.27002 11.43 5.73002 10.82 5.02002 10.7C5.23002 7.58 7.52002 4.99 10.58 4.39C10.75 5.03 11.33 5.5 12.02 5.5H13.02C13.71 5.5 14.28 5.03 14.46 4.4C17.5 5.01 19.77 7.6 19.98 10.7C19.27 10.82 18.73 11.43 18.73 12.17V13.17C18.73 14 19.4 14.67 20.23 14.67H21.23C22.06 14.67 22.73 14 22.73 13.17V12.17C22.73 11.43 22.19 10.81 21.48 10.7Z" fill="#292D32"/>
<path d="M16.2698 16.5502L14.6298 18.0002H10.3798L8.73983 16.5502C7.78983 15.7702 7.78983 15.1702 8.50983 14.2502L11.3998 10.5902C11.5998 10.3402 11.8298 10.1702 12.0898 10.0802C12.3598 9.9902 12.6498 9.9902 12.9298 10.0802C13.1798 10.1702 13.4098 10.3402 13.6198 10.5902L16.4998 14.2402C17.2298 15.1602 17.1898 15.7302 16.2698 16.5502Z" fill="#292D32"/>
<path d="M13.8197 22.0003H11.2297C10.3097 22.0003 9.61968 21.2503 9.79968 20.4503L10.1097 19.0603C10.1697 18.7803 10.4197 18.5903 10.6997 18.5903H14.3497C14.6297 18.5903 14.8697 18.7803 14.9397 19.0603L15.2497 20.4503C15.4397 21.3003 14.7997 22.0003 13.8197 22.0003Z" fill="#292D32"/>
</svg>
