<svg width="30" height="30" viewBox="0 0 30 30" fill="none" xmlns="http://www.w3.org/2000/svg">
<path d="M23.175 5.21231L16.3 2.6373C15.5875 2.3748 14.425 2.3748 13.7125 2.6373L6.8375 5.21231C5.5125 5.71231 4.4375 7.2623 4.4375 8.6748V18.7998C4.4375 19.8123 5.1 21.1498 5.9125 21.7498L12.7875 26.8873C14 27.7998 15.9875 27.7998 17.2 26.8873L24.075 21.7498C24.8875 21.1373 25.55 19.8123 25.55 18.7998V8.6748C25.5625 7.2623 24.4875 5.71231 23.175 5.21231ZM15.9375 16.0873V19.3748C15.9375 19.8873 15.5125 20.3123 15 20.3123C14.4875 20.3123 14.0625 19.8873 14.0625 19.3748V16.0873C12.8 15.6873 11.875 14.5123 11.875 13.1248C11.875 11.3998 13.275 9.9998 15 9.9998C16.725 9.9998 18.125 11.3998 18.125 13.1248C18.125 14.5248 17.2 15.6873 15.9375 16.0873Z" fill="#334155"/>
</svg>
