<svg width="25" height="24" viewBox="0 0 25 24" fill="none" xmlns="http://www.w3.org/2000/svg">
<path d="M17.3301 15.6402C18.0001 15.2002 18.8801 15.6802 18.8801 16.4802V17.7702C18.8801 19.0402 17.8901 20.4002 16.7001 20.8002L13.5101 21.8602C12.9501 22.0502 12.0401 22.0502 11.4901 21.8602L8.30012 20.8002C7.10012 20.4002 6.12012 19.0402 6.12012 17.7702V16.4702C6.12012 15.6802 7.00012 15.2002 7.66012 15.6302L9.72012 16.9702C10.5101 17.5002 11.5101 17.7602 12.5101 17.7602C13.5101 17.7602 14.5101 17.5002 15.3001 16.9702L17.3301 15.6402Z" fill="#292D32"/>
<path d="M20.48 6.46006L14.49 2.53006C13.41 1.82006 11.63 1.82006 10.55 2.53006L4.53002 6.46006C2.60002 7.71006 2.60002 10.5401 4.53002 11.8001L6.13002 12.8401L10.55 15.7201C11.63 16.4301 13.41 16.4301 14.49 15.7201L18.88 12.8401L20.25 11.9401V15.0001C20.25 15.4101 20.59 15.7501 21 15.7501C21.41 15.7501 21.75 15.4101 21.75 15.0001V10.0801C22.15 8.79006 21.74 7.29006 20.48 6.46006Z" fill="#292D32"/>
</svg>
