<svg width="878" height="878" viewBox="0 0 878 878" fill="none" xmlns="http://www.w3.org/2000/svg">
<rect width="878" height="878" fill="#6941C6"/>
<path d="M250.136 416.182V428.909H210V416.182H250.136ZM219.909 399.455C228.997 399.455 236.364 406.822 236.364 415.909V465C236.364 467.212 236.697 468.909 237.364 470.091C238.061 471.243 238.97 472.03 240.091 472.455C241.212 472.879 242.455 473.091 243.818 473.091C244.848 473.091 245.788 473.015 246.636 472.864C247.515 472.712 248.182 472.576 248.636 472.455L251.409 485.318C250.53 485.621 249.273 485.955 247.636 486.318C246.03 486.682 244.061 486.894 241.727 486.955C237.606 487.076 233.894 486.455 230.591 485.091C227.288 483.697 224.667 481.546 222.727 478.636C220.818 475.727 219.879 472.091 219.909 467.727V399.455Z" fill="white"/>
<path d="M252.378 486V416.182C261.465 416.182 268.832 423.549 268.832 432.636V486H252.378ZM260.65 406.273C258.044 406.273 255.802 405.409 253.923 403.682C252.044 401.924 251.105 399.818 251.105 397.364C251.105 394.879 252.044 392.773 253.923 391.046C255.802 389.288 258.044 388.409 260.65 388.409C263.287 388.409 265.529 389.288 267.378 391.046C269.257 392.773 270.196 394.879 270.196 397.364C270.196 399.818 269.257 401.924 267.378 403.682C265.529 405.409 263.287 406.273 260.65 406.273Z" fill="white"/>
<path d="M304.687 487.364C297.718 487.364 291.733 485.833 286.733 482.773C281.763 479.712 277.93 475.485 275.233 470.091C272.566 464.667 271.233 458.424 271.233 451.364C271.233 444.273 272.596 438.015 275.324 432.591C278.051 427.136 281.899 422.894 286.869 419.864C291.869 416.803 297.778 415.273 304.596 415.273C310.263 415.273 315.278 416.318 319.642 418.409C324.036 420.47 327.536 423.394 330.142 427.182C332.748 430.939 334.233 435.333 334.596 440.364H318.869C318.233 437 316.718 434.197 314.324 431.955C311.96 429.682 308.793 428.546 304.824 428.546C301.46 428.546 298.505 429.455 295.96 431.273C293.415 433.061 291.43 435.636 290.005 439C288.612 442.364 287.915 446.394 287.915 451.091C287.915 455.849 288.612 459.939 290.005 463.364C291.399 466.758 293.354 469.379 295.869 471.227C298.415 473.046 301.399 473.955 304.824 473.955C307.248 473.955 309.415 473.5 311.324 472.591C313.263 471.652 314.884 470.303 316.187 468.546C317.49 466.788 318.384 464.652 318.869 462.136H334.596C334.202 467.076 332.748 471.455 330.233 475.273C327.718 479.061 324.293 482.03 319.96 484.182C315.627 486.303 310.536 487.364 304.687 487.364Z" fill="white"/>
<path d="M351.588 464.091L351.542 444.227H354.179L379.27 416.182H398.497L367.633 450.546H364.224L351.588 464.091ZM336.588 486V392.909C345.675 392.909 353.042 400.276 353.042 409.364V486H336.588ZM380.406 486L357.679 454.227L368.77 442.636L400.088 486H380.406Z" fill="white"/>
<path d="M461.056 416.182L436.193 486H418.011L393.147 416.182H410.693L426.738 468.046H427.465L443.556 416.182H461.056Z" fill="white"/>
<path d="M489.457 487.364C482.457 487.364 476.411 485.909 471.32 483C466.26 480.061 462.366 475.909 459.639 470.546C456.911 465.152 455.548 458.803 455.548 451.5C455.548 444.318 456.911 438.015 459.639 432.591C462.396 427.136 466.245 422.894 471.184 419.864C476.123 416.803 481.927 415.273 488.593 415.273C492.896 415.273 496.957 415.97 500.775 417.364C504.623 418.727 508.017 420.849 510.957 423.727C513.927 426.606 516.26 430.273 517.957 434.727C519.654 439.152 520.502 444.424 520.502 450.546V455.591H463.275V444.5H504.73C504.699 441.349 504.017 438.546 502.684 436.091C501.351 433.606 499.487 431.652 497.093 430.227C494.73 428.803 491.972 428.091 488.82 428.091C485.457 428.091 482.502 428.909 479.957 430.546C477.411 432.152 475.427 434.273 474.002 436.909C472.608 439.515 471.896 442.379 471.866 445.5V455.182C471.866 459.243 472.608 462.727 474.093 465.636C475.578 468.515 477.654 470.727 480.32 472.273C482.987 473.788 486.108 474.546 489.684 474.546C492.078 474.546 494.245 474.212 496.184 473.546C498.123 472.849 499.805 471.833 501.23 470.5C502.654 469.167 503.73 467.515 504.457 465.546L519.82 467.273C518.851 471.333 517.002 474.879 514.275 477.909C511.578 480.909 508.123 483.243 503.911 484.909C499.699 486.546 494.881 487.364 489.457 487.364Z" fill="white"/>
<path d="M539.357 445.091V486H522.903V416.182H526.766C533.318 416.182 538.63 421.493 538.63 428.046H539.448C541.054 424.136 543.615 421.03 547.13 418.727C550.675 416.424 555.054 415.273 560.266 415.273C565.085 415.273 569.282 416.303 572.857 418.364C576.463 420.424 579.251 423.409 581.221 427.318C583.221 431.227 584.206 435.97 584.175 441.546V486H567.721V444.091C567.721 439.424 566.509 435.773 564.085 433.136C561.691 430.5 558.372 429.182 554.13 429.182C551.251 429.182 548.691 429.818 546.448 431.091C544.236 432.333 542.494 434.136 541.221 436.5C539.978 438.864 539.357 441.727 539.357 445.091Z" fill="white"/>
<path d="M624.246 416.182V428.909H584.11V416.182H624.246ZM594.019 399.455C603.107 399.455 610.474 406.822 610.474 415.909V465C610.474 467.212 610.807 468.909 611.474 470.091C612.171 471.243 613.08 472.03 614.201 472.455C615.322 472.879 616.565 473.091 617.928 473.091C618.958 473.091 619.898 473.015 620.746 472.864C621.625 472.712 622.292 472.576 622.746 472.455L625.519 485.318C624.64 485.621 623.383 485.955 621.746 486.318C620.14 486.682 618.171 486.894 615.837 486.955C611.716 487.076 608.004 486.455 604.701 485.091C601.398 483.697 598.777 481.546 596.837 478.636C594.928 475.727 593.989 472.091 594.019 467.727V399.455Z" fill="white"/>
<path d="M667.318 458.909C667.318 463.873 663.898 467.5 660.134 467.5L650.183 467.5C649.816 467.5 649.151 467.073 649.151 466.057L649.151 434.943C649.151 433.927 649.816 433.5 650.183 433.5L660.134 433.5C663.898 433.5 667.318 437.127 667.318 442.091L667.318 442.285C663.305 442.531 660.443 446.318 660.443 450.5C660.443 454.682 663.305 458.469 667.318 458.715L667.318 458.909ZM644.884 465.216C644.884 466.697 643.894 467.5 643.128 467.5L617.075 467.5C616.308 467.5 615.318 466.697 615.318 465.216L615.318 435.784C615.318 434.303 616.308 433.5 617.075 433.5L643.128 433.5C643.894 433.5 644.884 434.303 644.884 435.784L644.884 465.216Z" stroke="white" stroke-width="3"/>
</svg>
