<svg width="25" height="24" viewBox="0 0 25 24" fill="none" xmlns="http://www.w3.org/2000/svg">
<path d="M11.5002 1.99023C6.53023 1.99023 2.49023 6.03023 2.49023 11.0002C2.49023 15.9702 6.53023 20.0102 11.5002 20.0102C16.4702 20.0102 20.5102 15.9702 20.5102 11.0002C20.5102 6.03023 16.4702 1.99023 11.5002 1.99023ZM14.6802 11.5602C14.1202 13.3402 12.1702 14.3102 11.5002 14.3102C10.8102 14.3102 8.90023 13.3802 8.32023 11.5602C7.94023 10.3702 8.37023 8.82023 9.73023 8.39023C10.3502 8.19024 11.0102 8.31024 11.5002 8.68023C11.9802 8.31024 12.6502 8.19024 13.2802 8.39023C14.6302 8.83024 15.0602 10.3802 14.6802 11.5602Z" fill="#292D32"/>
<path d="M22.4901 18.95C22.1601 18.34 21.4601 18 20.5201 18C19.8101 18 19.2001 18.29 18.8401 18.79C18.4801 19.29 18.4001 19.96 18.6201 20.63C19.0501 21.93 19.8001 22.22 20.2101 22.27C20.2701 22.28 20.3301 22.28 20.4001 22.28C20.8401 22.28 21.5201 22.09 22.1801 21.1C22.7101 20.33 22.8101 19.56 22.4901 18.95Z" fill="#292D32"/>
</svg>
