<svg width="41" height="40" viewBox="0 0 41 40" fill="none" xmlns="http://www.w3.org/2000/svg">
<path d="M35.75 10.2832C35.0666 9.9165 33.6333 9.53317 31.6833 10.8998L29.2333 12.6332C29.05 7.44984 26.8 5.4165 21.3333 5.4165H11.3333C5.63329 5.4165 3.41663 7.63317 3.41663 13.3332V26.6665C3.41663 30.4998 5.49996 34.5832 11.3333 34.5832H21.3333C26.8 34.5832 29.05 32.5498 29.2333 27.3665L31.6833 29.0998C32.7166 29.8332 33.6166 30.0665 34.3333 30.0665C34.95 30.0665 35.4333 29.8832 35.75 29.7165C36.4333 29.3665 37.5833 28.4165 37.5833 26.0332V13.9665C37.5833 11.5832 36.4333 10.6332 35.75 10.2832ZM18.8333 18.9665C17.1166 18.9665 15.7 17.5665 15.7 15.8332C15.7 14.0998 17.1166 12.6998 18.8333 12.6998C20.55 12.6998 21.9666 14.0998 21.9666 15.8332C21.9666 17.5665 20.55 18.9665 18.8333 18.9665Z" fill="#EE46BC"/>
</svg>
